<mxfile host="65bd71144e">
    <diagram id="_EMshqNhNGl3x2o3V7k_" name="Page-1">
        <mxGraphModel dx="1003" dy="794" grid="0" gridSize="10" guides="1" tooltips="1" connect="1" arrows="1" fold="1" page="0" pageScale="1" pageWidth="850" pageHeight="1100" background="#ffffff" math="0" shadow="0">
            <root>
                <mxCell id="0"/>
                <mxCell id="1" parent="0"/>
                <mxCell id="2" value="&lt;font color=&quot;#000000&quot; style=&quot;font-size: 14px;&quot;&gt;Сотрудник&lt;br style=&quot;font-size: 14px;&quot;&gt;&lt;/font&gt;" style="shape=umlActor;verticalLabelPosition=bottom;verticalAlign=top;html=1;strokeColor=#000000;fillColor=#FFFFFF;fontFamily=Times New Roman;fontSize=14;" parent="1" vertex="1">
                    <mxGeometry x="318" y="181" width="30" height="60" as="geometry"/>
                </mxCell>
                <mxCell id="23" style="edgeStyle=none;html=1;labelBackgroundColor=none;strokeColor=#000000;fontFamily=Arial;fontColor=#000000;endArrow=none;endFill=0;" parent="1" target="10" edge="1">
                    <mxGeometry relative="1" as="geometry">
                        <mxPoint x="531" y="363" as="sourcePoint"/>
                    </mxGeometry>
                </mxCell>
                <mxCell id="24" style="edgeStyle=none;html=1;labelBackgroundColor=none;strokeColor=#000000;fontFamily=Arial;fontColor=#000000;endArrow=none;endFill=0;" parent="1" target="12" edge="1">
                    <mxGeometry relative="1" as="geometry">
                        <mxPoint x="523" y="377" as="sourcePoint"/>
                    </mxGeometry>
                </mxCell>
                <mxCell id="25" style="edgeStyle=none;html=1;labelBackgroundColor=none;strokeColor=#000000;fontFamily=Arial;fontColor=#000000;endArrow=none;endFill=0;" parent="1" target="4" edge="1">
                    <mxGeometry relative="1" as="geometry">
                        <mxPoint x="507" y="337" as="sourcePoint"/>
                    </mxGeometry>
                </mxCell>
                <mxCell id="3" value="Администратор" style="shape=umlActor;verticalLabelPosition=bottom;verticalAlign=top;html=1;strokeColor=#000000;fontColor=#000000;fillColor=#FFFFFF;fontFamily=Times New Roman;fontSize=14;" parent="1" vertex="1">
                    <mxGeometry x="492" y="347" width="30" height="60" as="geometry"/>
                </mxCell>
                <mxCell id="30" style="edgeStyle=none;html=1;labelBackgroundColor=none;strokeColor=#000000;fontFamily=Arial;fontColor=#000000;endArrow=none;endFill=0;" parent="1" edge="1">
                    <mxGeometry relative="1" as="geometry">
                        <mxPoint x="362" y="237" as="targetPoint"/>
                        <mxPoint x="466" y="246" as="sourcePoint"/>
                    </mxGeometry>
                </mxCell>
                <mxCell id="4" value="Авторизация" style="ellipse;whiteSpace=wrap;html=1;strokeColor=#000000;fontColor=#000000;fillColor=#FFFFFF;fontFamily=Times New Roman;fontSize=14;" parent="1" vertex="1">
                    <mxGeometry x="462" y="227" width="90" height="54" as="geometry"/>
                </mxCell>
                <mxCell id="26" style="edgeStyle=none;html=1;exitX=1;exitY=1;exitDx=0;exitDy=0;labelBackgroundColor=none;strokeColor=#000000;fontFamily=Arial;fontColor=#000000;endArrow=none;endFill=0;" parent="1" source="5" edge="1">
                    <mxGeometry relative="1" as="geometry">
                        <mxPoint x="491.1851535373264" y="349.59256998697913" as="targetPoint"/>
                    </mxGeometry>
                </mxCell>
                <mxCell id="29" style="edgeStyle=none;html=1;exitX=0;exitY=0;exitDx=0;exitDy=0;labelBackgroundColor=none;strokeColor=#000000;fontFamily=Arial;fontColor=#000000;endArrow=none;endFill=0;" parent="1" source="5" edge="1">
                    <mxGeometry relative="1" as="geometry">
                        <mxPoint x="364.37035228587956" y="259.51851399739576" as="targetPoint"/>
                    </mxGeometry>
                </mxCell>
                <mxCell id="5" value="Изменение личной информации" style="ellipse;whiteSpace=wrap;html=1;strokeColor=#000000;fontColor=#000000;fillColor=#FFFFFF;fontFamily=Times New Roman;fontSize=14;" parent="1" vertex="1">
                    <mxGeometry x="378" y="276" width="99" height="60" as="geometry"/>
                </mxCell>
                <mxCell id="27" style="edgeStyle=none;html=1;exitX=1;exitY=0.5;exitDx=0;exitDy=0;labelBackgroundColor=none;strokeColor=#000000;fontFamily=Arial;fontColor=#000000;endArrow=none;endFill=0;" parent="1" source="8" edge="1">
                    <mxGeometry relative="1" as="geometry">
                        <mxPoint x="476.370361328125" y="365.8888888888888" as="targetPoint"/>
                    </mxGeometry>
                </mxCell>
                <mxCell id="28" style="edgeStyle=none;html=1;exitX=0.5;exitY=0;exitDx=0;exitDy=0;labelBackgroundColor=none;strokeColor=#000000;fontFamily=Arial;fontColor=#000000;endArrow=none;endFill=0;" parent="1" source="8" edge="1">
                    <mxGeometry relative="1" as="geometry">
                        <mxPoint x="338" y="265" as="targetPoint"/>
                    </mxGeometry>
                </mxCell>
                <mxCell id="8" value="Просмотр всех сотрудников" style="ellipse;whiteSpace=wrap;html=1;strokeColor=#000000;fontColor=#000000;fillColor=#FFFFFF;fontFamily=Times New Roman;fontSize=14;" parent="1" vertex="1">
                    <mxGeometry x="288" y="340" width="100" height="60" as="geometry"/>
                </mxCell>
                <mxCell id="10" value="Управление сотрудниками" style="ellipse;whiteSpace=wrap;html=1;strokeColor=#000000;fontColor=#000000;fillColor=#FFFFFF;fontFamily=Times New Roman;fontSize=14;" parent="1" vertex="1">
                    <mxGeometry x="568" y="302" width="91" height="59" as="geometry"/>
                </mxCell>
                <mxCell id="31" style="edgeStyle=none;html=1;exitX=0;exitY=1;exitDx=0;exitDy=0;labelBackgroundColor=none;strokeColor=#000000;fontFamily=Arial;fontColor=#000000;endArrow=none;endFill=0;" parent="1" source="11" edge="1">
                    <mxGeometry relative="1" as="geometry">
                        <mxPoint x="355.48146339699065" y="213.88887984664348" as="targetPoint"/>
                    </mxGeometry>
                </mxCell>
                <mxCell id="11" value="Просмотр всех задач" style="ellipse;whiteSpace=wrap;html=1;strokeColor=#000000;fontColor=#000000;fillColor=#FFFFFF;fontFamily=Times New Roman;fontSize=14;" parent="1" vertex="1">
                    <mxGeometry x="407" y="142" width="90" height="54" as="geometry"/>
                </mxCell>
                <mxCell id="12" value="Просмотр всех задач" style="ellipse;whiteSpace=wrap;html=1;strokeColor=#000000;fontColor=#000000;fillColor=#FFFFFF;fontFamily=Times New Roman;fontSize=14;" parent="1" vertex="1">
                    <mxGeometry x="574" y="407" width="90" height="54" as="geometry"/>
                </mxCell>
                <mxCell id="13" value="Создание задачи" style="ellipse;whiteSpace=wrap;html=1;strokeColor=#000000;fontColor=#000000;fillColor=#FFFFFF;fontFamily=Times New Roman;fontSize=14;" parent="1" vertex="1">
                    <mxGeometry x="773" y="396" width="90" height="54" as="geometry"/>
                </mxCell>
                <mxCell id="14" value="Удаление задачи" style="ellipse;whiteSpace=wrap;html=1;strokeColor=#000000;fontColor=#000000;fillColor=#FFFFFF;fontFamily=Times New Roman;fontSize=14;" parent="1" vertex="1">
                    <mxGeometry x="752" y="480" width="90" height="54" as="geometry"/>
                </mxCell>
                <mxCell id="15" value="Изменение статуса задачи" style="ellipse;whiteSpace=wrap;html=1;strokeColor=#000000;fontColor=#000000;fillColor=#FFFFFF;fontFamily=Times New Roman;fontSize=14;" parent="1" vertex="1">
                    <mxGeometry x="659" y="528" width="96" height="56" as="geometry"/>
                </mxCell>
                <mxCell id="16" value="" style="endArrow=open;endSize=12;dashed=1;html=1;fontColor=#000000;strokeColor=#000000;entryX=0.313;entryY=0.046;entryDx=0;entryDy=0;entryPerimeter=0;" parent="1" source="12" target="15" edge="1">
                    <mxGeometry x="0.275" y="-16" width="160" relative="1" as="geometry">
                        <mxPoint x="371" y="462" as="sourcePoint"/>
                        <mxPoint x="531" y="462" as="targetPoint"/>
                        <mxPoint as="offset"/>
                    </mxGeometry>
                </mxCell>
                <mxCell id="17" value="" style="endArrow=open;endSize=12;dashed=1;html=1;fontColor=#000000;strokeColor=#000000;exitX=1;exitY=0.5;exitDx=0;exitDy=0;" parent="1" source="12" target="14" edge="1">
                    <mxGeometry x="0.275" y="-16" width="160" relative="1" as="geometry">
                        <mxPoint x="652" y="437" as="sourcePoint"/>
                        <mxPoint x="682.4300000000001" y="472.4000000000001" as="targetPoint"/>
                        <mxPoint as="offset"/>
                    </mxGeometry>
                </mxCell>
                <mxCell id="18" value="" style="endArrow=open;endSize=12;dashed=1;html=1;fontColor=#000000;strokeColor=#000000;exitX=0.97;exitY=0.308;exitDx=0;exitDy=0;exitPerimeter=0;" parent="1" source="12" target="13" edge="1">
                    <mxGeometry x="0.275" y="-16" width="160" relative="1" as="geometry">
                        <mxPoint x="691.24" y="423.60799999999995" as="sourcePoint"/>
                        <mxPoint x="732.3126982100875" y="433.8323654170945" as="targetPoint"/>
                        <mxPoint as="offset"/>
                    </mxGeometry>
                </mxCell>
                <mxCell id="20" value="&lt;span style=&quot;font-size: 14px;&quot;&gt;&amp;lt;&amp;lt;include&amp;gt;&amp;gt;&lt;/span&gt;" style="edgeLabel;html=1;align=center;verticalAlign=middle;resizable=0;points=[];fontColor=#000000;imageAspect=1;noLabel=0;portConstraintRotation=0;recursiveResize=1;expand=1;fixDash=0;backgroundOutline=0;autosize=0;movable=1;resizeWidth=0;rotatable=1;labelBackgroundColor=#FFFFFF;rotation=0;fontFamily=Times New Roman;fontSize=14;" parent="18" vertex="1" connectable="0">
                    <mxGeometry x="-0.2287" y="-1" relative="1" as="geometry">
                        <mxPoint x="21" y="38" as="offset"/>
                    </mxGeometry>
                </mxCell>
                <mxCell id="21" value="&amp;lt;&amp;lt;include&amp;gt;&amp;gt;" style="edgeLabel;align=center;verticalAlign=middle;resizable=0;points=[];fontFamily=Times New Roman;fontColor=#000000;html=1;labelBackgroundColor=#FFFFFF;rotation=0;fontSize=14;" parent="18" vertex="1" connectable="0">
                    <mxGeometry x="0.1698" y="2" relative="1" as="geometry">
                        <mxPoint x="-12" y="5" as="offset"/>
                    </mxGeometry>
                </mxCell>
                <mxCell id="22" value="&lt;span style=&quot;font-size: 14px;&quot;&gt;&amp;lt;&amp;lt;include&amp;gt;&amp;gt;&lt;/span&gt;" style="edgeLabel;html=1;align=center;verticalAlign=middle;resizable=0;points=[];fontColor=#000000;imageAspect=1;noLabel=0;portConstraintRotation=0;recursiveResize=1;expand=1;fixDash=0;backgroundOutline=0;autosize=0;movable=1;resizeWidth=0;rotatable=1;labelBackgroundColor=#FFFFFF;rotation=0;fontFamily=Times New Roman;fontSize=14;" parent="1" vertex="1" connectable="0">
                    <mxGeometry x="655.9970843024589" y="486.0049236898384" as="geometry"/>
                </mxCell>
                <mxCell id="33" style="edgeStyle=none;html=1;labelBackgroundColor=none;strokeColor=#000000;fontFamily=Arial;fontColor=#000000;endArrow=none;endFill=0;" parent="1" source="32" edge="1">
                    <mxGeometry relative="1" as="geometry">
                        <mxPoint x="342.4444670500577" y="174.7778003833912" as="targetPoint"/>
                    </mxGeometry>
                </mxCell>
                <mxCell id="32" value="Посмотреть информацию об онлайн-сервисе" style="ellipse;whiteSpace=wrap;html=1;strokeColor=#000000;fontColor=#000000;fillColor=#FFFFFF;fontFamily=Times New Roman;fontSize=14;" parent="1" vertex="1">
                    <mxGeometry x="301" y="84" width="116" height="67" as="geometry"/>
                </mxCell>
                <mxCell id="51" style="edgeStyle=none;html=1;exitX=0.5;exitY=0;exitDx=0;exitDy=0;labelBackgroundColor=none;strokeColor=#000000;fontFamily=Arial;fontColor=#000000;endArrow=none;endFill=0;" parent="1" source="34" edge="1">
                    <mxGeometry relative="1" as="geometry">
                        <mxPoint x="484" y="429" as="targetPoint"/>
                    </mxGeometry>
                </mxCell>
                <mxCell id="34" value="Создание отчета" style="ellipse;whiteSpace=wrap;html=1;strokeColor=#000000;fontColor=#000000;fillColor=#FFFFFF;fontFamily=Times New Roman;fontSize=14;" parent="1" vertex="1">
                    <mxGeometry x="435" y="446" width="90" height="54" as="geometry"/>
                </mxCell>
                <mxCell id="35" value="Выбор нужной задачи для отчета" style="ellipse;whiteSpace=wrap;html=1;strokeColor=#000000;fontColor=#000000;fillColor=#FFFFFF;fontFamily=Times New Roman;fontSize=14;" parent="1" vertex="1">
                    <mxGeometry x="394" y="537" width="111" height="63" as="geometry"/>
                </mxCell>
                <mxCell id="36" value="Сохранение отчета в формате excel" style="ellipse;whiteSpace=wrap;html=1;strokeColor=#000000;fontColor=#000000;fillColor=#FFFFFF;fontFamily=Times New Roman;fontSize=14;" parent="1" vertex="1">
                    <mxGeometry x="276" y="506" width="111" height="59" as="geometry"/>
                </mxCell>
                <mxCell id="37" value="" style="endArrow=open;endSize=12;dashed=1;html=1;fontColor=#000000;strokeColor=#000000;exitX=0.5;exitY=1;exitDx=0;exitDy=0;" parent="1" source="34" target="35" edge="1">
                    <mxGeometry x="0.275" y="-16" width="160" relative="1" as="geometry">
                        <mxPoint x="675.04" y="433.16599999999994" as="sourcePoint"/>
                        <mxPoint x="703.6399999999999" y="507.8100000000002" as="targetPoint"/>
                        <mxPoint as="offset"/>
                    </mxGeometry>
                </mxCell>
                <mxCell id="38" value="" style="endArrow=open;endSize=12;dashed=1;html=1;fontColor=#000000;strokeColor=#000000;" parent="1" source="34" target="36" edge="1">
                    <mxGeometry x="0.275" y="-16" width="160" relative="1" as="geometry">
                        <mxPoint x="548.9463237482489" y="508.01566889776745" as="sourcePoint"/>
                        <mxPoint x="588.043276198111" y="547.043276198111" as="targetPoint"/>
                        <mxPoint as="offset"/>
                    </mxGeometry>
                </mxCell>
                <mxCell id="39" value="&lt;span style=&quot;font-size: 14px;&quot;&gt;&amp;lt;&amp;lt;include&amp;gt;&amp;gt;&lt;/span&gt;" style="edgeLabel;html=1;align=center;verticalAlign=middle;resizable=0;points=[];fontColor=#000000;imageAspect=1;noLabel=0;portConstraintRotation=0;recursiveResize=1;expand=1;fixDash=0;backgroundOutline=0;autosize=0;movable=1;resizeWidth=0;rotatable=1;labelBackgroundColor=#FFFFFF;rotation=0;fontFamily=Times New Roman;fontSize=14;" parent="1" vertex="1" connectable="0">
                    <mxGeometry x="471.9970843024589" y="517.0049236898384" as="geometry"/>
                </mxCell>
                <mxCell id="40" value="&lt;span style=&quot;font-size: 14px;&quot;&gt;&amp;lt;&amp;lt;include&amp;gt;&amp;gt;&lt;/span&gt;" style="edgeLabel;html=1;align=center;verticalAlign=middle;resizable=0;points=[];fontColor=#000000;imageAspect=1;noLabel=0;portConstraintRotation=0;recursiveResize=1;expand=1;fixDash=0;backgroundOutline=0;autosize=0;movable=1;resizeWidth=0;rotatable=1;labelBackgroundColor=#FFFFFF;rotation=0;fontFamily=Times New Roman;fontSize=14;" parent="1" vertex="1" connectable="0">
                    <mxGeometry x="406.9970843024589" y="500.0049236898384" as="geometry"/>
                </mxCell>
                <mxCell id="52" style="edgeStyle=none;html=1;labelBackgroundColor=none;strokeColor=#000000;fontFamily=Arial;fontColor=#000000;endArrow=none;endFill=0;" parent="1" source="41" edge="1">
                    <mxGeometry relative="1" as="geometry">
                        <mxPoint x="316" y="195" as="targetPoint"/>
                    </mxGeometry>
                </mxCell>
                <mxCell id="41" value="Создание отчета" style="ellipse;whiteSpace=wrap;html=1;strokeColor=#000000;fontColor=#000000;fillColor=#FFFFFF;fontFamily=Times New Roman;fontSize=14;" parent="1" vertex="1">
                    <mxGeometry x="198" y="146" width="90" height="54" as="geometry"/>
                </mxCell>
                <mxCell id="42" value="Выбор нужной задачи для отчета" style="ellipse;whiteSpace=wrap;html=1;strokeColor=#000000;fontColor=#000000;fillColor=#FFFFFF;fontFamily=Times New Roman;fontSize=14;" parent="1" vertex="1">
                    <mxGeometry x="204" y="251" width="104" height="66" as="geometry"/>
                </mxCell>
                <mxCell id="43" value="Сохранение отчета в формате excel" style="ellipse;whiteSpace=wrap;html=1;strokeColor=#000000;fontColor=#000000;fillColor=#FFFFFF;fontFamily=Times New Roman;fontSize=14;" parent="1" vertex="1">
                    <mxGeometry x="63" y="224" width="106" height="61" as="geometry"/>
                </mxCell>
                <mxCell id="44" value="" style="endArrow=open;endSize=12;dashed=1;html=1;fontColor=#000000;strokeColor=#000000;exitX=0.611;exitY=0.926;exitDx=0;exitDy=0;exitPerimeter=0;" parent="1" source="41" target="42" edge="1">
                    <mxGeometry x="0.275" y="-16" width="160" relative="1" as="geometry">
                        <mxPoint x="272.03999999999996" y="98.16599999999994" as="sourcePoint"/>
                        <mxPoint x="300.6399999999999" y="172.81000000000017" as="targetPoint"/>
                        <mxPoint as="offset"/>
                    </mxGeometry>
                </mxCell>
                <mxCell id="45" value="" style="endArrow=open;endSize=12;dashed=1;html=1;fontColor=#000000;strokeColor=#000000;exitX=0.074;exitY=0.772;exitDx=0;exitDy=0;exitPerimeter=0;" parent="1" source="41" target="43" edge="1">
                    <mxGeometry x="0.275" y="-16" width="160" relative="1" as="geometry">
                        <mxPoint x="145.94632374824891" y="173.01566889776745" as="sourcePoint"/>
                        <mxPoint x="185.04327619811102" y="212.04327619811102" as="targetPoint"/>
                        <mxPoint as="offset"/>
                    </mxGeometry>
                </mxCell>
                <mxCell id="46" value="&lt;span style=&quot;font-size: 14px;&quot;&gt;&amp;lt;&amp;lt;include&amp;gt;&amp;gt;&lt;/span&gt;" style="edgeLabel;html=1;align=center;verticalAlign=middle;resizable=0;points=[];fontColor=#000000;imageAspect=1;noLabel=0;portConstraintRotation=0;recursiveResize=1;expand=1;fixDash=0;backgroundOutline=0;autosize=0;movable=1;resizeWidth=0;rotatable=1;labelBackgroundColor=#FFFFFF;rotation=0;fontFamily=Times New Roman;fontSize=14;" parent="1" vertex="1" connectable="0">
                    <mxGeometry x="179.99708430245892" y="204.0049236898384" as="geometry"/>
                </mxCell>
                <mxCell id="47" value="&lt;span style=&quot;font-size: 14px;&quot;&gt;&amp;lt;&amp;lt;include&amp;gt;&amp;gt;&lt;/span&gt;" style="edgeLabel;html=1;align=center;verticalAlign=middle;resizable=0;points=[];fontColor=#000000;imageAspect=1;noLabel=0;portConstraintRotation=0;recursiveResize=1;expand=1;fixDash=0;backgroundOutline=0;autosize=0;movable=1;resizeWidth=0;rotatable=1;labelBackgroundColor=#FFFFFF;rotation=0;fontFamily=Times New Roman;fontSize=14;" parent="1" vertex="1" connectable="0">
                    <mxGeometry x="252.99708430245892" y="216.0049236898384" as="geometry"/>
                </mxCell>
                <mxCell id="48" value="Скачивание рабочего файла" style="ellipse;whiteSpace=wrap;html=1;strokeColor=#000000;fontColor=#000000;fillColor=#FFFFFF;fontFamily=Times New Roman;fontSize=14;" parent="1" vertex="1">
                    <mxGeometry x="552" y="537" width="90" height="54" as="geometry"/>
                </mxCell>
                <mxCell id="49" value="" style="endArrow=open;endSize=12;dashed=1;html=1;fontColor=#000000;strokeColor=#000000;exitX=0.305;exitY=1.01;exitDx=0;exitDy=0;exitPerimeter=0;" parent="1" source="12" target="48" edge="1">
                    <mxGeometry x="0.275" y="-16" width="160" relative="1" as="geometry">
                        <mxPoint x="655" y="424" as="sourcePoint"/>
                        <mxPoint x="781.3499999999999" y="469.71000000000015" as="targetPoint"/>
                        <mxPoint as="offset"/>
                    </mxGeometry>
                </mxCell>
                <mxCell id="50" value="&lt;span style=&quot;font-size: 14px;&quot;&gt;&amp;lt;&amp;lt;include&amp;gt;&amp;gt;&lt;/span&gt;" style="edgeLabel;html=1;align=center;verticalAlign=middle;resizable=0;points=[];fontColor=#000000;imageAspect=1;noLabel=0;portConstraintRotation=0;recursiveResize=1;expand=1;fixDash=0;backgroundOutline=0;autosize=0;movable=1;resizeWidth=0;rotatable=1;labelBackgroundColor=#FFFFFF;rotation=0;fontFamily=Times New Roman;fontSize=14;" parent="1" vertex="1" connectable="0">
                    <mxGeometry x="587.9970843024589" y="500.0049236898384" as="geometry"/>
                </mxCell>
                <mxCell id="53" value="Скачивание рабочего файла" style="ellipse;whiteSpace=wrap;html=1;strokeColor=#000000;fontColor=#000000;fillColor=#FFFFFF;fontFamily=Times New Roman;fontSize=14;" parent="1" vertex="1">
                    <mxGeometry x="558" y="88" width="90" height="54" as="geometry"/>
                </mxCell>
                <mxCell id="54" value="" style="endArrow=open;endSize=12;dashed=1;html=1;fontColor=#000000;strokeColor=#000000;" parent="1" source="11" target="53" edge="1">
                    <mxGeometry x="0.275" y="-16" width="160" relative="1" as="geometry">
                        <mxPoint x="512.0025165682447" y="157.0445487526356" as="sourcePoint"/>
                        <mxPoint x="571.1205025819708" y="101.99668705478507" as="targetPoint"/>
                        <mxPoint as="offset"/>
                    </mxGeometry>
                </mxCell>
                <mxCell id="56" value="&amp;lt;&amp;lt;include&amp;gt;&amp;gt;" style="edgeLabel;align=center;verticalAlign=middle;resizable=0;points=[];fontFamily=Times New Roman;fontColor=#000000;html=1;labelBackgroundColor=#FFFFFF;rotation=0;fontSize=14;" parent="54" vertex="1" connectable="0">
                    <mxGeometry x="0.1698" y="2" relative="1" as="geometry">
                        <mxPoint x="-12" y="5" as="offset"/>
                    </mxGeometry>
                </mxCell>
                <mxCell id="60" value="Удаление сотрудника" style="ellipse;whiteSpace=wrap;html=1;strokeColor=#000000;fontColor=#000000;fillColor=#FFFFFF;fontFamily=Times New Roman;fontSize=14;" parent="1" vertex="1">
                    <mxGeometry x="727" y="261" width="91" height="59" as="geometry"/>
                </mxCell>
                <mxCell id="62" value="Добавление сотрудника" style="ellipse;whiteSpace=wrap;html=1;strokeColor=#000000;fontColor=#000000;fillColor=#FFFFFF;fontFamily=Times New Roman;fontSize=14;" parent="1" vertex="1">
                    <mxGeometry x="757" y="329" width="91" height="59" as="geometry"/>
                </mxCell>
                <mxCell id="63" value="" style="endArrow=open;endSize=12;dashed=1;html=1;fontColor=#000000;strokeColor=#000000;entryX=0;entryY=0.5;entryDx=0;entryDy=0;" parent="1" source="10" target="60" edge="1">
                    <mxGeometry x="0.275" y="-16" width="160" relative="1" as="geometry">
                        <mxPoint x="778" y="148.63199999999983" as="sourcePoint"/>
                        <mxPoint x="889.7000000000062" y="148" as="targetPoint"/>
                        <mxPoint as="offset"/>
                    </mxGeometry>
                </mxCell>
                <mxCell id="65" value="&amp;lt;&amp;lt;include&amp;gt;&amp;gt;" style="edgeLabel;align=center;verticalAlign=middle;resizable=0;points=[];fontFamily=Times New Roman;fontColor=#000000;html=1;labelBackgroundColor=#FFFFFF;rotation=0;fontSize=14;" parent="63" vertex="1" connectable="0">
                    <mxGeometry x="0.1698" y="2" relative="1" as="geometry">
                        <mxPoint x="-12" y="5" as="offset"/>
                    </mxGeometry>
                </mxCell>
                <mxCell id="66" value="" style="endArrow=open;endSize=12;dashed=1;html=1;fontColor=#000000;strokeColor=#000000;exitX=0.988;exitY=0.748;exitDx=0;exitDy=0;exitPerimeter=0;" parent="1" source="10" target="62" edge="1">
                    <mxGeometry x="0.275" y="-16" width="160" relative="1" as="geometry">
                        <mxPoint x="911" y="149.63199999999983" as="sourcePoint"/>
                        <mxPoint x="1022.7000000000062" y="149" as="targetPoint"/>
                        <mxPoint as="offset"/>
                    </mxGeometry>
                </mxCell>
                <mxCell id="68" value="&amp;lt;&amp;lt;include&amp;gt;&amp;gt;" style="edgeLabel;align=center;verticalAlign=middle;resizable=0;points=[];fontFamily=Times New Roman;fontColor=#000000;html=1;labelBackgroundColor=#FFFFFF;rotation=0;fontSize=14;" parent="66" vertex="1" connectable="0">
                    <mxGeometry x="0.1698" y="2" relative="1" as="geometry">
                        <mxPoint x="-17" y="2" as="offset"/>
                    </mxGeometry>
                </mxCell>
                <mxCell id="69" value="&lt;font color=&quot;#000000&quot; style=&quot;&quot;&gt;&lt;font style=&quot;font-size: 19px;&quot;&gt;Сотрудник&lt;/font&gt;&lt;br style=&quot;font-size: 14px;&quot;&gt;&lt;/font&gt;" style="shape=umlActor;verticalLabelPosition=bottom;verticalAlign=top;html=1;strokeColor=#000000;fillColor=#FFFFFF;fontFamily=Times New Roman;fontSize=14;" parent="1" vertex="1">
                    <mxGeometry x="1206" y="84" width="47" height="85" as="geometry"/>
                </mxCell>
                <mxCell id="70" style="edgeStyle=none;html=1;labelBackgroundColor=none;strokeColor=#000000;fontFamily=Arial;fontColor=#000000;endArrow=none;endFill=0;" parent="1" source="71" edge="1">
                    <mxGeometry relative="1" as="geometry">
                        <mxPoint x="1237" y="82" as="targetPoint"/>
                    </mxGeometry>
                </mxCell>
                <mxCell id="71" value="Посмотреть информацию об онлайн-сервисе" style="ellipse;whiteSpace=wrap;html=1;strokeColor=#000000;fontColor=#000000;fillColor=#FFFFFF;fontFamily=Times New Roman;fontSize=18;" parent="1" vertex="1">
                    <mxGeometry x="1193" y="-18" width="153" height="86.78" as="geometry"/>
                </mxCell>
                <mxCell id="72" value="Создание отчета" style="ellipse;whiteSpace=wrap;html=1;strokeColor=#000000;fontColor=#000000;fillColor=#FFFFFF;fontFamily=Times New Roman;fontSize=18;" parent="1" vertex="1">
                    <mxGeometry x="1297" y="62" width="83" height="48.78" as="geometry"/>
                </mxCell>
                <mxCell id="73" value="Выбор нужной задачи для отчета" style="ellipse;whiteSpace=wrap;html=1;strokeColor=#000000;fontColor=#000000;fillColor=#FFFFFF;fontFamily=Times New Roman;fontSize=18;" parent="1" vertex="1">
                    <mxGeometry x="1496" y="36.89" width="144" height="88.11" as="geometry"/>
                </mxCell>
                <mxCell id="74" value="Сохранение отчета в формате excel" style="ellipse;whiteSpace=wrap;html=1;strokeColor=#000000;fontColor=#000000;fillColor=#FFFFFF;fontFamily=Times New Roman;fontSize=18;" parent="1" vertex="1">
                    <mxGeometry x="1389.52" y="-57.78" width="133" height="91.78" as="geometry"/>
                </mxCell>
                <mxCell id="75" value="" style="endArrow=open;endSize=12;dashed=1;html=1;fontColor=#000000;strokeColor=#000000;exitX=1;exitY=0.5;exitDx=0;exitDy=0;" parent="1" source="72" target="73" edge="1">
                    <mxGeometry x="0.275" y="-16" width="160" relative="1" as="geometry">
                        <mxPoint x="1485.04" y="12.385999999999939" as="sourcePoint"/>
                        <mxPoint x="1513.6399999999999" y="87.03000000000017" as="targetPoint"/>
                        <mxPoint as="offset"/>
                    </mxGeometry>
                </mxCell>
                <mxCell id="76" value="" style="endArrow=open;endSize=12;dashed=1;html=1;fontColor=#000000;strokeColor=#000000;exitX=1;exitY=0;exitDx=0;exitDy=0;" parent="1" source="72" target="74" edge="1">
                    <mxGeometry x="0.275" y="-16" width="160" relative="1" as="geometry">
                        <mxPoint x="1358.946323748249" y="87.23566889776745" as="sourcePoint"/>
                        <mxPoint x="1398.043276198111" y="126.26327619811101" as="targetPoint"/>
                        <mxPoint as="offset"/>
                    </mxGeometry>
                </mxCell>
                <mxCell id="77" value="&lt;span style=&quot;font-size: 18px;&quot;&gt;&amp;lt;&amp;lt;include&amp;gt;&amp;gt;&lt;/span&gt;" style="edgeLabel;html=1;align=center;verticalAlign=middle;resizable=0;points=[];fontColor=#000000;imageAspect=1;noLabel=0;portConstraintRotation=0;recursiveResize=1;expand=1;fixDash=0;backgroundOutline=0;autosize=0;movable=1;resizeWidth=0;rotatable=1;labelBackgroundColor=#FFFFFF;rotation=0;fontFamily=Times New Roman;fontSize=18;" parent="1" vertex="1" connectable="0">
                    <mxGeometry x="1389.517084302459" y="48.00492368983839" as="geometry">
                        <mxPoint as="offset"/>
                    </mxGeometry>
                </mxCell>
                <mxCell id="78" value="&lt;span style=&quot;font-size: 18px;&quot;&gt;&amp;lt;&amp;lt;include&amp;gt;&amp;gt;&lt;/span&gt;" style="edgeLabel;html=1;align=center;verticalAlign=middle;resizable=0;points=[];fontColor=#000000;imageAspect=1;noLabel=0;portConstraintRotation=0;recursiveResize=1;expand=1;fixDash=0;backgroundOutline=0;autosize=0;movable=1;resizeWidth=0;rotatable=1;labelBackgroundColor=#FFFFFF;rotation=0;fontFamily=Times New Roman;fontSize=18;" parent="1" vertex="1" connectable="0">
                    <mxGeometry x="1432.997084302459" y="86.3949236898384" as="geometry"/>
                </mxCell>
                <mxCell id="79" style="edgeStyle=none;html=1;exitX=0.006;exitY=0.423;exitDx=0;exitDy=0;labelBackgroundColor=none;strokeColor=#000000;fontFamily=Arial;fontColor=#000000;endArrow=none;endFill=0;exitPerimeter=0;" parent="1" source="80" target="69" edge="1">
                    <mxGeometry relative="1" as="geometry">
                        <mxPoint x="1525.0014633969906" y="301.9988798466435" as="targetPoint"/>
                    </mxGeometry>
                </mxCell>
                <mxCell id="80" value="Просмотр всех задач" style="ellipse;whiteSpace=wrap;html=1;strokeColor=#000000;fontColor=#000000;fillColor=#FFFFFF;fontFamily=Times New Roman;fontSize=18;" parent="1" vertex="1">
                    <mxGeometry x="1267" y="114" width="96" height="57" as="geometry"/>
                </mxCell>
                <mxCell id="81" value="Скачивание рабочего файла" style="ellipse;whiteSpace=wrap;html=1;strokeColor=#000000;fontColor=#000000;fillColor=#FFFFFF;fontFamily=Times New Roman;fontSize=18;" parent="1" vertex="1">
                    <mxGeometry x="1484" y="128" width="129.48" height="82" as="geometry"/>
                </mxCell>
                <mxCell id="82" value="" style="endArrow=open;endSize=12;dashed=1;html=1;fontColor=#000000;strokeColor=#000000;" parent="1" source="80" target="81" edge="1">
                    <mxGeometry x="0.275" y="-16" width="160" relative="1" as="geometry">
                        <mxPoint x="1681.5225165682446" y="245.1545487526356" as="sourcePoint"/>
                        <mxPoint x="1740.6405025819708" y="190.10668705478508" as="targetPoint"/>
                        <mxPoint as="offset"/>
                    </mxGeometry>
                </mxCell>
                <mxCell id="83" value="&amp;lt;&amp;lt;include&amp;gt;&amp;gt;" style="edgeLabel;align=center;verticalAlign=middle;resizable=0;points=[];fontFamily=Times New Roman;fontColor=#000000;html=1;labelBackgroundColor=#FFFFFF;rotation=0;fontSize=18;" parent="82" vertex="1" connectable="0">
                    <mxGeometry x="0.1698" y="2" relative="1" as="geometry">
                        <mxPoint x="-18" y="1" as="offset"/>
                    </mxGeometry>
                </mxCell>
                <mxCell id="84" style="edgeStyle=none;html=1;exitX=0.043;exitY=0.703;exitDx=0;exitDy=0;labelBackgroundColor=none;strokeColor=#000000;fontFamily=Arial;fontColor=#000000;endArrow=none;endFill=0;exitPerimeter=0;" parent="1" source="72" edge="1">
                    <mxGeometry relative="1" as="geometry">
                        <mxPoint x="1260" y="110" as="targetPoint"/>
                        <mxPoint x="1322.000000000004" y="154.4999999999999" as="sourcePoint"/>
                    </mxGeometry>
                </mxCell>
                <mxCell id="85" style="edgeStyle=none;html=1;labelBackgroundColor=none;strokeColor=#000000;fontFamily=Times New Roman;fontColor=#000000;endArrow=none;endFill=0;fontSize=18;" parent="1" source="86" edge="1">
                    <mxGeometry relative="1" as="geometry">
                        <mxPoint x="1202" y="113" as="targetPoint"/>
                        <mxPoint x="1428" y="264" as="sourcePoint"/>
                    </mxGeometry>
                </mxCell>
                <mxCell id="86" value="Авторизация" style="ellipse;whiteSpace=wrap;html=1;strokeColor=#000000;fontColor=#000000;fillColor=#FFFFFF;fontFamily=Times New Roman;fontSize=18;" parent="1" vertex="1">
                    <mxGeometry x="1091" y="103.5" width="107" height="46" as="geometry"/>
                </mxCell>
                <mxCell id="87" style="edgeStyle=none;html=1;labelBackgroundColor=none;strokeColor=#000000;fontFamily=Times New Roman;fontColor=#000000;endArrow=none;endFill=0;fontSize=18;exitX=0.964;exitY=0.699;exitDx=0;exitDy=0;exitPerimeter=0;" parent="1" source="88" edge="1">
                    <mxGeometry relative="1" as="geometry">
                        <mxPoint x="1206" y="83" as="targetPoint"/>
                    </mxGeometry>
                </mxCell>
                <mxCell id="88" value="Просмотр всех сотрудников" style="ellipse;whiteSpace=wrap;html=1;strokeColor=#000000;fontColor=#000000;fillColor=#FFFFFF;fontFamily=Times New Roman;fontSize=18;" parent="1" vertex="1">
                    <mxGeometry x="1073" y="30" width="130" height="69" as="geometry"/>
                </mxCell>
                <mxCell id="89" style="edgeStyle=none;html=1;labelBackgroundColor=none;strokeColor=#000000;fontFamily=Times New Roman;fontColor=#000000;endArrow=none;endFill=0;fontSize=18;" parent="1" target="91" edge="1">
                    <mxGeometry relative="1" as="geometry">
                        <mxPoint x="2266" y="-14" as="sourcePoint"/>
                    </mxGeometry>
                </mxCell>
                <mxCell id="90" style="edgeStyle=none;html=1;labelBackgroundColor=none;strokeColor=#000000;fontFamily=Times New Roman;fontColor=#000000;endArrow=none;endFill=0;fontSize=18;" parent="1" target="92" edge="1">
                    <mxGeometry relative="1" as="geometry">
                        <mxPoint x="2282" y="-4" as="sourcePoint"/>
                    </mxGeometry>
                </mxCell>
                <mxCell id="91" value="Управление сотрудниками" style="ellipse;whiteSpace=wrap;html=1;strokeColor=#000000;fontColor=#000000;fillColor=#FFFFFF;fontFamily=Times New Roman;fontSize=18;" parent="1" vertex="1">
                    <mxGeometry x="2210" y="-105" width="122" height="68" as="geometry"/>
                </mxCell>
                <mxCell id="92" value="Просмотр всех задач" style="ellipse;whiteSpace=wrap;html=1;strokeColor=#000000;fontColor=#000000;fillColor=#FFFFFF;fontFamily=Times New Roman;fontSize=18;" parent="1" vertex="1">
                    <mxGeometry x="2308" y="-50" width="95" height="57" as="geometry"/>
                </mxCell>
                <mxCell id="93" value="Создание задачи" style="ellipse;whiteSpace=wrap;html=1;strokeColor=#000000;fontColor=#000000;fillColor=#FFFFFF;fontFamily=Times New Roman;fontSize=18;" parent="1" vertex="1">
                    <mxGeometry x="2495" y="-116" width="89" height="46" as="geometry"/>
                </mxCell>
                <mxCell id="94" value="Удаление задачи" style="ellipse;whiteSpace=wrap;html=1;strokeColor=#000000;fontColor=#000000;fillColor=#FFFFFF;fontFamily=Times New Roman;fontSize=18;" parent="1" vertex="1">
                    <mxGeometry x="2528" y="-70" width="90" height="54" as="geometry"/>
                </mxCell>
                <mxCell id="95" value="Изменение статуса задачи" style="ellipse;whiteSpace=wrap;html=1;strokeColor=#000000;fontColor=#000000;fillColor=#FFFFFF;fontFamily=Times New Roman;fontSize=18;" parent="1" vertex="1">
                    <mxGeometry x="2522" y="-10" width="122" height="73" as="geometry"/>
                </mxCell>
                <mxCell id="96" value="" style="endArrow=open;endSize=12;dashed=1;html=1;fontColor=#000000;strokeColor=#000000;fontFamily=Times New Roman;fontSize=18;" parent="1" source="92" target="95" edge="1">
                    <mxGeometry x="0.275" y="-16" width="160" relative="1" as="geometry">
                        <mxPoint x="2233" y="103" as="sourcePoint"/>
                        <mxPoint x="2393" y="103" as="targetPoint"/>
                        <mxPoint as="offset"/>
                    </mxGeometry>
                </mxCell>
                <mxCell id="97" value="" style="endArrow=open;endSize=12;dashed=1;html=1;fontColor=#000000;strokeColor=#000000;exitX=1;exitY=0.5;exitDx=0;exitDy=0;fontFamily=Times New Roman;fontSize=18;" parent="1" source="92" target="94" edge="1">
                    <mxGeometry x="0.275" y="-16" width="160" relative="1" as="geometry">
                        <mxPoint x="2514" y="78" as="sourcePoint"/>
                        <mxPoint x="2544.4300000000003" y="113.40000000000009" as="targetPoint"/>
                        <mxPoint as="offset"/>
                    </mxGeometry>
                </mxCell>
                <mxCell id="98" value="" style="endArrow=open;endSize=12;dashed=1;html=1;fontColor=#000000;strokeColor=#000000;exitX=0.97;exitY=0.308;exitDx=0;exitDy=0;exitPerimeter=0;fontFamily=Times New Roman;fontSize=18;" parent="1" source="92" target="93" edge="1">
                    <mxGeometry x="0.275" y="-16" width="160" relative="1" as="geometry">
                        <mxPoint x="2553.24" y="64.60799999999995" as="sourcePoint"/>
                        <mxPoint x="2594.3126982100875" y="74.83236541709448" as="targetPoint"/>
                        <mxPoint as="offset"/>
                    </mxGeometry>
                </mxCell>
                <mxCell id="99" value="&lt;span style=&quot;font-size: 18px;&quot;&gt;&amp;lt;&amp;lt;include&amp;gt;&amp;gt;&lt;/span&gt;" style="edgeLabel;html=1;align=center;verticalAlign=middle;resizable=0;points=[];fontColor=#000000;imageAspect=1;noLabel=0;portConstraintRotation=0;recursiveResize=1;expand=1;fixDash=0;backgroundOutline=0;autosize=0;movable=1;resizeWidth=0;rotatable=1;labelBackgroundColor=#FFFFFF;rotation=0;fontFamily=Times New Roman;fontSize=18;" parent="98" vertex="1" connectable="0">
                    <mxGeometry x="-0.2287" y="-1" relative="1" as="geometry">
                        <mxPoint x="21" y="21" as="offset"/>
                    </mxGeometry>
                </mxCell>
                <mxCell id="100" value="&amp;lt;&amp;lt;include&amp;gt;&amp;gt;" style="edgeLabel;align=center;verticalAlign=middle;resizable=0;points=[];fontFamily=Times New Roman;fontColor=#000000;html=1;labelBackgroundColor=#FFFFFF;rotation=0;fontSize=18;" parent="98" vertex="1" connectable="0">
                    <mxGeometry x="0.1698" y="2" relative="1" as="geometry">
                        <mxPoint x="-12" y="5" as="offset"/>
                    </mxGeometry>
                </mxCell>
                <mxCell id="101" value="&lt;span style=&quot;font-size: 18px;&quot;&gt;&amp;lt;&amp;lt;include&amp;gt;&amp;gt;&lt;/span&gt;" style="edgeLabel;html=1;align=center;verticalAlign=middle;resizable=0;points=[];fontColor=#000000;imageAspect=1;noLabel=0;portConstraintRotation=0;recursiveResize=1;expand=1;fixDash=0;backgroundOutline=0;autosize=0;movable=1;resizeWidth=0;rotatable=1;labelBackgroundColor=#FFFFFF;rotation=0;fontFamily=Times New Roman;fontSize=18;" parent="1" vertex="1" connectable="0">
                    <mxGeometry x="2457.997084302459" y="-3.9950763101616076" as="geometry"/>
                </mxCell>
                <mxCell id="102" value="Скачивание рабочего файла" style="ellipse;whiteSpace=wrap;html=1;strokeColor=#000000;fontColor=#000000;fillColor=#FFFFFF;fontFamily=Times New Roman;fontSize=18;" parent="1" vertex="1">
                    <mxGeometry x="2386" y="36.89" width="138" height="72" as="geometry"/>
                </mxCell>
                <mxCell id="103" value="" style="endArrow=open;endSize=12;dashed=1;html=1;fontColor=#000000;strokeColor=#000000;fontFamily=Times New Roman;fontSize=18;" parent="1" source="92" target="102" edge="1">
                    <mxGeometry x="0.275" y="-16" width="160" relative="1" as="geometry">
                        <mxPoint x="2517" y="65" as="sourcePoint"/>
                        <mxPoint x="2643.35" y="110.71000000000015" as="targetPoint"/>
                        <mxPoint as="offset"/>
                    </mxGeometry>
                </mxCell>
                <mxCell id="104" value="&lt;span style=&quot;font-size: 18px;&quot;&gt;&amp;lt;&amp;lt;include&amp;gt;&amp;gt;&lt;/span&gt;" style="edgeLabel;html=1;align=center;verticalAlign=middle;resizable=0;points=[];fontColor=#000000;imageAspect=1;noLabel=0;portConstraintRotation=0;recursiveResize=1;expand=1;fixDash=0;backgroundOutline=0;autosize=0;movable=1;resizeWidth=0;rotatable=1;labelBackgroundColor=#FFFFFF;rotation=0;fontFamily=Times New Roman;fontSize=18;" parent="1" vertex="1" connectable="0">
                    <mxGeometry x="2402.997084302459" y="19.004923689838392" as="geometry"/>
                </mxCell>
                <mxCell id="105" value="Удаление сотрудника" style="ellipse;whiteSpace=wrap;html=1;strokeColor=#000000;fontColor=#000000;fillColor=#FFFFFF;fontFamily=Times New Roman;fontSize=18;" parent="1" vertex="1">
                    <mxGeometry x="2302" y="-202" width="98" height="62" as="geometry"/>
                </mxCell>
                <mxCell id="106" value="Добавление сотрудника" style="ellipse;whiteSpace=wrap;html=1;strokeColor=#000000;fontColor=#000000;fillColor=#FFFFFF;fontFamily=Times New Roman;fontSize=18;" parent="1" vertex="1">
                    <mxGeometry x="2416" y="-169" width="102" height="64" as="geometry"/>
                </mxCell>
                <mxCell id="107" value="" style="endArrow=open;endSize=12;dashed=1;html=1;fontColor=#000000;strokeColor=#000000;entryX=0.266;entryY=0.963;entryDx=0;entryDy=0;fontFamily=Times New Roman;fontSize=18;entryPerimeter=0;" parent="1" source="91" target="105" edge="1">
                    <mxGeometry x="0.275" y="-16" width="160" relative="1" as="geometry">
                        <mxPoint x="2640" y="-210.36800000000017" as="sourcePoint"/>
                        <mxPoint x="2751.700000000006" y="-211" as="targetPoint"/>
                        <mxPoint as="offset"/>
                    </mxGeometry>
                </mxCell>
                <mxCell id="108" value="&amp;lt;&amp;lt;include&amp;gt;&amp;gt;" style="edgeLabel;align=center;verticalAlign=middle;resizable=0;points=[];fontFamily=Times New Roman;fontColor=#000000;html=1;labelBackgroundColor=#FFFFFF;rotation=0;fontSize=18;" parent="107" vertex="1" connectable="0">
                    <mxGeometry x="0.1698" y="2" relative="1" as="geometry">
                        <mxPoint x="-12" y="9" as="offset"/>
                    </mxGeometry>
                </mxCell>
                <mxCell id="109" value="" style="endArrow=open;endSize=12;dashed=1;html=1;fontColor=#000000;strokeColor=#000000;exitX=0.937;exitY=0.259;exitDx=0;exitDy=0;exitPerimeter=0;fontFamily=Times New Roman;fontSize=18;" parent="1" source="91" target="106" edge="1">
                    <mxGeometry x="0.275" y="-16" width="160" relative="1" as="geometry">
                        <mxPoint x="2773" y="-209.36800000000017" as="sourcePoint"/>
                        <mxPoint x="2884.700000000006" y="-210" as="targetPoint"/>
                        <mxPoint as="offset"/>
                    </mxGeometry>
                </mxCell>
                <mxCell id="110" value="&amp;lt;&amp;lt;include&amp;gt;&amp;gt;" style="edgeLabel;align=center;verticalAlign=middle;resizable=0;points=[];fontFamily=Times New Roman;fontColor=#000000;html=1;labelBackgroundColor=#FFFFFF;rotation=0;fontSize=18;" parent="109" vertex="1" connectable="0">
                    <mxGeometry x="0.1698" y="2" relative="1" as="geometry">
                        <mxPoint x="-5" y="10" as="offset"/>
                    </mxGeometry>
                </mxCell>
                <mxCell id="111" value="Администратор" style="shape=umlActor;verticalLabelPosition=bottom;verticalAlign=top;html=1;strokeColor=#000000;fontColor=#000000;fillColor=#FFFFFF;fontFamily=Times New Roman;fontSize=19;" parent="1" vertex="1">
                    <mxGeometry x="2250" y="-7" width="30" height="60" as="geometry"/>
                </mxCell>
                <mxCell id="112" style="edgeStyle=none;html=1;labelBackgroundColor=none;strokeColor=#000000;fontFamily=Times New Roman;fontColor=#000000;endArrow=none;endFill=0;fontSize=18;" parent="1" source="113" edge="1">
                    <mxGeometry relative="1" as="geometry">
                        <mxPoint x="2256" y="7" as="targetPoint"/>
                    </mxGeometry>
                </mxCell>
                <mxCell id="113" value="Создание отчета" style="ellipse;whiteSpace=wrap;html=1;strokeColor=#000000;fontColor=#000000;fillColor=#FFFFFF;fontFamily=Times New Roman;fontSize=18;" parent="1" vertex="1">
                    <mxGeometry x="2169" y="-44" width="90" height="54" as="geometry"/>
                </mxCell>
                <mxCell id="114" value="Выбор нужной задачи для отчета" style="ellipse;whiteSpace=wrap;html=1;strokeColor=#000000;fontColor=#000000;fillColor=#FFFFFF;fontFamily=Times New Roman;fontSize=18;" parent="1" vertex="1">
                    <mxGeometry x="1969" y="-140" width="150" height="80" as="geometry"/>
                </mxCell>
                <mxCell id="115" value="Сохранение отчета в формате excel" style="ellipse;whiteSpace=wrap;html=1;strokeColor=#000000;fontColor=#000000;fillColor=#FFFFFF;fontFamily=Times New Roman;fontSize=18;" parent="1" vertex="1">
                    <mxGeometry x="2108" y="-195" width="140" height="66" as="geometry"/>
                </mxCell>
                <mxCell id="116" value="" style="endArrow=open;endSize=12;dashed=1;html=1;fontColor=#000000;strokeColor=#000000;fontFamily=Times New Roman;fontSize=18;" parent="1" source="113" target="114" edge="1">
                    <mxGeometry x="0.275" y="-16" width="160" relative="1" as="geometry">
                        <mxPoint x="2076.04" y="64.94599999999994" as="sourcePoint"/>
                        <mxPoint x="2104.64" y="139.59000000000017" as="targetPoint"/>
                        <mxPoint as="offset"/>
                    </mxGeometry>
                </mxCell>
                <mxCell id="117" value="" style="endArrow=open;endSize=12;dashed=1;html=1;fontColor=#000000;strokeColor=#000000;fontFamily=Times New Roman;fontSize=18;" parent="1" source="113" target="115" edge="1">
                    <mxGeometry x="0.275" y="-16" width="160" relative="1" as="geometry">
                        <mxPoint x="1949.9463237482487" y="139.79566889776746" as="sourcePoint"/>
                        <mxPoint x="1989.043276198111" y="178.82327619811102" as="targetPoint"/>
                        <mxPoint as="offset"/>
                    </mxGeometry>
                </mxCell>
                <mxCell id="118" value="&lt;span style=&quot;font-size: 18px;&quot;&gt;&amp;lt;&amp;lt;include&amp;gt;&amp;gt;&lt;/span&gt;" style="edgeLabel;html=1;align=center;verticalAlign=middle;resizable=0;points=[];fontColor=#000000;imageAspect=1;noLabel=0;portConstraintRotation=0;recursiveResize=1;expand=1;fixDash=0;backgroundOutline=0;autosize=0;movable=1;resizeWidth=0;rotatable=1;labelBackgroundColor=#FFFFFF;rotation=0;fontFamily=Times New Roman;fontSize=18;" parent="1" vertex="1" connectable="0">
                    <mxGeometry x="2168.997084302459" y="-99.99507631016161" as="geometry"/>
                </mxCell>
                <mxCell id="119" value="&lt;span style=&quot;font-size: 18px;&quot;&gt;&amp;lt;&amp;lt;include&amp;gt;&amp;gt;&lt;/span&gt;" style="edgeLabel;html=1;align=center;verticalAlign=middle;resizable=0;points=[];fontColor=#000000;imageAspect=1;noLabel=0;portConstraintRotation=0;recursiveResize=1;expand=1;fixDash=0;backgroundOutline=0;autosize=0;movable=1;resizeWidth=0;rotatable=1;labelBackgroundColor=#FFFFFF;rotation=0;fontFamily=Times New Roman;fontSize=18;" parent="1" vertex="1" connectable="0">
                    <mxGeometry x="2133.997084302459" y="-46.99507631016161" as="geometry"/>
                </mxCell>
                <mxCell id="120" style="edgeStyle=none;html=1;exitX=1;exitY=0.5;exitDx=0;exitDy=0;labelBackgroundColor=none;strokeColor=#000000;fontFamily=Arial;fontColor=#000000;endArrow=none;endFill=0;" parent="1" source="121" edge="1">
                    <mxGeometry relative="1" as="geometry">
                        <mxPoint x="486.370361328125" y="375.8888888888887" as="targetPoint"/>
                    </mxGeometry>
                </mxCell>
                <mxCell id="121" value="Просмотр всех сотрудников" style="ellipse;whiteSpace=wrap;html=1;strokeColor=#000000;fontColor=#000000;fillColor=#FFFFFF;fontFamily=Times New Roman;fontSize=14;" parent="1" vertex="1">
                    <mxGeometry x="298" y="350" width="100" height="60" as="geometry"/>
                </mxCell>
                <mxCell id="122" style="edgeStyle=none;html=1;labelBackgroundColor=none;strokeColor=#000000;fontFamily=Times New Roman;fontColor=#000000;endArrow=none;endFill=0;fontSize=18;" parent="1" source="123" target="111" edge="1">
                    <mxGeometry relative="1" as="geometry">
                        <mxPoint x="2199" y="114.75" as="targetPoint"/>
                    </mxGeometry>
                </mxCell>
                <mxCell id="123" value="Просмотр всех сотрудников" style="ellipse;whiteSpace=wrap;html=1;strokeColor=#000000;fontColor=#000000;fillColor=#FFFFFF;fontFamily=Times New Roman;fontSize=18;" parent="1" vertex="1">
                    <mxGeometry x="2031" y="-35.000000000000014" width="130" height="69" as="geometry"/>
                </mxCell>
            </root>
        </mxGraphModel>
    </diagram>
</mxfile>